<svg width="73" height="72" viewBox="0 0 73 72" fill="none" xmlns="http://www.w3.org/2000/svg">
<path d="M36.5 42C44.4967 42 51 35.721 51 28C51 20.279 44.4967 14 36.5 14C28.5032 14 22 20.279 22 28C22 35.721 28.5032 42 36.5 42ZM36.5 21C40.4984 21 43.75 24.1395 43.75 28C43.75 31.8605 40.4984 35 36.5 35C32.5016 35 29.25 31.8605 29.25 28C29.25 24.1395 32.5016 21 36.5 21Z" fill="white"/>
<path d="M34.4338 70.3403C35.0367 70.7693 35.7591 71 36.5 71C37.2409 71 37.9633 70.7693 38.5662 70.3403C39.6492 69.577 65.103 51.2624 64.9997 28.4002C64.9997 12.7411 52.214 0 36.5 0C20.786 0 8.00031 12.7411 8.00031 28.3825C7.897 51.2624 33.3508 69.577 34.4338 70.3403ZM36.5 7.10006C48.2882 7.10006 57.8748 16.6532 57.8748 28.418C57.9496 44.173 42.2427 58.3199 36.5 62.9598C30.7609 58.3163 15.0504 44.1659 15.1252 28.4002C15.1252 16.6532 24.7118 7.10006 36.5 7.10006Z" fill="white"/>
</svg>
